<?xml version="1.0" encoding="utf-8"?>
<!-- Generator: Adobe Illustrator 17.0.0, SVG Export Plug-In . SVG Version: 6.00 Build 0)  -->
<!DOCTYPE svg PUBLIC "-//W3C//DTD SVG 1.1//EN" "http://www.w3.org/Graphics/SVG/1.1/DTD/svg11.dtd">
<svg version="1.1" id="Layer_1" xmlns="http://www.w3.org/2000/svg" xmlns:xlink="http://www.w3.org/1999/xlink" viewBox="0 0 28.003 28.003" enable-background="new 0 0 28.003 28.003" xml:space="preserve">
	 
<path fill="#383A3F" d="M14.002,0C6.269,0,0,6.27,0,14.002c0,7.733,6.269,14.001,14.002,14.001s14.002-6.268,14.002-14.001
	C28.003,6.27,21.734,0,14.002,0z M17.708,13.943h-2.424c0,3.875,0,8.647,0,8.647H11.69c0,0,0-4.723,0-8.647H9.981V10.89h1.709V8.912
	c0-1.416,0.672-3.626,3.627-3.626l2.661,0.01v2.965c0,0-1.618,0-1.932,0c-0.315,0-0.761,0.158-0.761,0.831v1.798h2.739
	L17.708,13.943z"/>
</svg>
