<?xml version="1.0" encoding="utf-8"?>
<!-- Generator: Adobe Illustrator 17.0.0, SVG Export Plug-In . SVG Version: 6.00 Build 0)  -->
<!DOCTYPE svg PUBLIC "-//W3C//DTD SVG 1.1//EN" "http://www.w3.org/Graphics/SVG/1.1/DTD/svg11.dtd">
<svg version="1.1" id="Layer_1" xmlns="http://www.w3.org/2000/svg" xmlns:xlink="http://www.w3.org/1999/xlink" viewBox="0 0 28.003 28.003" enable-background="new 0 0 28.003 28.003" xml:space="preserve">
<g>
	<polygon fill="#383A3F" points="19.782,10.937 19.782,8.693 19.782,8.357 19.446,8.358 17.202,8.366 17.21,10.945 	"/>
	<path fill="#383A3F" d="M13.932,16.894c1.477,0,2.68-1.201,2.68-2.679c0-0.583-0.19-1.123-0.508-1.563
		c-0.486-0.674-1.278-1.117-2.172-1.117s-1.685,0.443-2.172,1.117c-0.318,0.44-0.507,0.98-0.507,1.563
		C11.254,15.692,12.455,16.894,13.932,16.894z"/>
	<path fill="#383A3F" d="M14.002,0C6.269,0,0,6.268,0,14.001s6.269,14.002,14.002,14.002c7.732,0,14.001-6.269,14.001-14.002
		S21.734,0,14.002,0z M21.544,12.652v6.233c0,1.622-1.32,2.941-2.942,2.941h-9.34c-1.622,0-2.941-1.319-2.941-2.941v-6.233V9.545
		c0-1.622,1.319-2.941,2.941-2.941h9.34c1.622,0,2.942,1.319,2.942,2.941L21.544,12.652z"/>
	<path fill="#383A3F" d="M18.095,14.215c0,2.294-1.867,4.162-4.162,4.162s-4.161-1.868-4.161-4.162c0-0.553,0.11-1.079,0.305-1.563
		H7.804v6.233c0,0.804,0.654,1.458,1.458,1.458h9.34c0.804,0,1.458-0.654,1.458-1.458v-6.233h-2.273
		C17.984,13.136,18.095,13.662,18.095,14.215z"/>
</g>
</svg>
