<?xml version="1.0" encoding="utf-8"?>
<!-- Generator: Adobe Illustrator 17.0.0, SVG Export Plug-In . SVG Version: 6.00 Build 0)  -->
<!DOCTYPE svg PUBLIC "-//W3C//DTD SVG 1.1//EN" "http://www.w3.org/Graphics/SVG/1.1/DTD/svg11.dtd">
<svg version="1.1" id="Layer_1" xmlns="http://www.w3.org/2000/svg" xmlns:xlink="http://www.w3.org/1999/xlink" x="0px" y="0px"
	 width="600px" height="600px" viewBox="0 0 600 600" enable-background="new 0 0 600 600" xml:space="preserve">
<circle fill="#383A3F" stroke="#F1F9FE" stroke-miterlimit="10" cx="300" cy="300" r="282.813"/>
<circle fill="none" stroke="#F1F9FE" stroke-width="3" stroke-miterlimit="10" cx="300" cy="300" r="257.692"/>
<g>
	<path fill="#F1F9FE" d="M155.03,155.03c0,0,1.804-1.754,5.187-5.043c0.855-0.812,1.768-1.763,2.851-2.728
		c1.09-0.957,2.28-2.003,3.566-3.132c1.293-1.122,2.655-2.363,4.161-3.623c1.542-1.215,3.181-2.506,4.912-3.87
		c0.866-0.682,1.755-1.383,2.667-2.102c0.931-0.694,1.913-1.366,2.903-2.076c1.996-1.397,4.049-2.913,6.255-4.396
		c2.244-1.428,4.578-2.915,7.001-4.457c1.194-0.801,2.496-1.47,3.78-2.22c1.293-0.735,2.608-1.483,3.944-2.243
		c10.764-5.934,23.487-11.675,37.978-16.149c14.467-4.525,30.725-7.583,48.074-8.735c2.165-0.216,4.357-0.185,6.558-0.276
		c1.101-0.032,2.206-0.064,3.314-0.096c1.108-0.043,2.22-0.064,3.335-0.024c2.231,0.042,4.476,0.084,6.733,0.126l1.696,0.035
		l1.697,0.113c1.133,0.075,2.269,0.151,3.409,0.227c4.567,0.207,9.145,0.838,13.776,1.374c2.31,0.309,4.613,0.749,6.936,1.12
		c1.161,0.194,2.324,0.389,3.489,0.583c1.155,0.248,2.313,0.497,3.474,0.746c18.596,3.836,37.258,10.522,54.863,19.906
		c2.18,1.211,4.364,2.424,6.553,3.64c2.168,1.249,4.266,2.628,6.407,3.939l3.195,2.001l3.101,2.153
		c2.053,1.458,4.175,2.827,6.177,4.363c8.118,6.011,15.737,12.721,23.007,19.784l5.22,5.504c0.855,0.927,1.753,1.794,2.572,2.771
		l2.479,2.895l2.477,2.895c0.833,0.959,1.654,1.926,2.407,2.941c1.545,2.002,3.089,4.002,4.631,6
		c1.536,2.002,2.905,4.124,4.363,6.177l2.153,3.101l2.001,3.195c1.311,2.142,2.689,4.239,3.939,6.407
		c1.216,2.188,2.429,4.373,3.64,6.553c9.384,17.605,16.07,36.267,19.906,54.864c0.249,1.16,0.498,2.318,0.746,3.474
		c0.195,1.166,0.389,2.329,0.583,3.489c0.371,2.323,0.811,4.626,1.12,6.936c0.535,4.632,1.175,9.209,1.378,13.776
		c0.076,1.139,0.151,2.276,0.227,3.409l0.113,1.697l0.035,1.696c0.042,2.258,0.084,4.502,0.126,6.733
		c0.04,1.115,0.019,2.227-0.024,3.336c-0.032,1.108-0.064,2.213-0.096,3.314c-0.091,2.201-0.06,4.393-0.276,6.558
		c-1.152,17.35-4.211,33.607-8.736,48.075c-4.475,14.491-10.213,27.216-16.149,37.979c-0.76,1.336-1.508,2.651-2.243,3.944
		c-0.75,1.284-1.42,2.586-2.22,3.78c-1.542,2.422-3.029,4.757-4.457,7c-1.483,2.206-2.999,4.26-4.397,6.255
		c-0.71,0.99-1.382,1.972-2.076,2.903c-0.719,0.912-1.419,1.801-2.102,2.667c-1.364,1.731-2.656,3.37-3.871,4.912
		c-1.259,1.505-2.5,2.866-3.622,4.159c-1.129,1.286-2.174,2.475-3.132,3.565c-0.965,1.083-1.917,1.997-2.729,2.853
		c-3.289,3.383-5.044,5.187-5.044,5.187s1.713-1.843,4.924-5.298c0.792-0.873,1.722-1.806,2.661-2.91
		c0.931-1.11,1.948-2.321,3.047-3.63c1.091-1.315,2.294-2.702,3.522-4.228c1.186-1.558,2.447-3.214,3.778-4.964
		c0.666-0.874,1.349-1.772,2.05-2.693c0.676-0.939,1.33-1.93,2.021-2.928c1.359-2.012,2.835-4.082,4.275-6.304
		c1.384-2.257,2.825-4.606,4.32-7.043c0.777-1.201,1.422-2.509,2.146-3.798c0.71-1.298,1.432-2.618,2.165-3.96
		c5.715-10.808,11.192-23.533,15.516-37.936c4.342-14.393,7.203-30.533,8.168-47.709c0.193-2.143,0.139-4.313,0.207-6.491
		c0.02-1.089,0.041-2.182,0.061-3.278c0.032-1.096,0.042-2.196-0.01-3.298c-0.064-2.205-0.128-4.424-0.193-6.655l-0.051-1.676
		l-0.129-1.676c-0.086-1.119-0.172-2.241-0.259-3.366c-0.256-4.509-0.92-9.026-1.453-13.6c-0.313-2.281-0.756-4.554-1.13-6.847
		c-0.195-1.145-0.391-2.293-0.587-3.444c-0.249-1.14-0.499-2.283-0.749-3.428c-3.85-18.349-10.512-36.743-19.826-54.076
		c-1.202-2.146-2.406-4.297-3.612-6.451c-1.239-2.134-2.607-4.198-3.906-6.305l-1.983-3.144l-2.134-3.05
		c-1.445-2.019-2.8-4.107-4.322-6.076c-1.527-1.965-3.056-3.931-4.585-5.9c-0.747-1.001-1.555-1.945-2.373-2.88l-2.434-2.825
		l-2.434-2.827c-0.799-0.95-1.717-1.831-2.57-2.75l-5.181-5.437c-7.144-6.985-14.631-13.627-22.616-19.58
		c-1.969-1.522-4.057-2.877-6.076-4.322l-3.05-2.134l-3.144-1.983c-2.108-1.3-4.171-2.667-6.306-3.906
		c-2.154-1.206-4.305-2.41-6.451-3.612c-17.333-9.314-35.727-15.976-54.077-19.826c-1.145-0.25-2.288-0.5-3.428-0.749
		c-1.15-0.196-2.298-0.392-3.444-0.587c-2.293-0.374-4.566-0.817-6.847-1.13c-4.574-0.532-9.09-1.204-13.6-1.457
		c-1.125-0.087-2.247-0.173-3.366-0.259l-1.676-0.129l-1.676-0.051c-2.231-0.065-4.45-0.129-6.655-0.193
		c-1.103-0.051-2.202-0.042-3.299-0.01c-1.096,0.021-2.189,0.041-3.278,0.062c-2.178,0.068-4.347,0.014-6.491,0.207
		c-17.176,0.965-33.317,3.827-47.71,8.169c-14.403,4.324-27.129,9.799-37.937,15.516c-1.342,0.734-2.662,1.455-3.96,2.165
		c-1.29,0.725-2.598,1.37-3.798,2.146c-2.437,1.495-4.786,2.936-7.043,4.32c-2.222,1.44-4.291,2.916-6.304,4.275
		c-0.998,0.691-1.989,1.345-2.928,2.021c-0.921,0.701-1.819,1.385-2.693,2.05c-1.75,1.332-3.406,2.592-4.964,3.779
		c-1.525,1.227-2.912,2.429-4.226,3.52c-1.309,1.099-2.52,2.115-3.63,3.047c-1.103,0.939-2.038,1.871-2.911,2.663
		C156.873,153.317,155.03,155.03,155.03,155.03z"/>
</g>
<g>
	<g>
		<path fill="#F1F9FE" d="M164.97,269.023v-80.32h18.359c3.594,0,6.864,0.383,9.81,1.147c2.944,0.766,5.468,1.951,7.573,3.557
			c2.103,1.607,3.729,3.692,4.877,6.254c1.147,2.564,1.721,5.604,1.721,9.122c0,4.744-1.167,8.912-3.5,12.507
			c-2.334,3.596-5.909,6.043-10.728,7.343c2.295,0.459,4.475,1.224,6.54,2.295c2.066,1.072,3.882,2.449,5.451,4.13
			c1.567,1.684,2.829,3.634,3.786,5.852c0.956,2.219,1.434,4.704,1.434,7.458c0,3.443-0.689,6.446-2.066,9.008
			c-1.377,2.564-3.232,4.704-5.565,6.425c-2.334,1.721-4.991,3.023-7.974,3.901c-2.984,0.88-6.081,1.32-9.294,1.32H164.97z
			 M169.675,193.294v33.046h15.146c5.431,0,9.753-1.587,12.966-4.762c3.213-3.174,4.82-7.324,4.82-12.45
			c0-2.829-0.441-5.258-1.32-7.286c-0.88-2.026-2.123-3.672-3.729-4.934c-1.607-1.262-3.54-2.18-5.795-2.754
			c-2.257-0.573-4.724-0.86-7.4-0.86H169.675z M169.675,230.929v33.505h15.26c2.829,0,5.488-0.344,7.975-1.033
			c2.484-0.689,4.665-1.721,6.54-3.098c1.873-1.377,3.365-3.078,4.475-5.107c1.108-2.026,1.664-4.417,1.664-7.171
			c0-2.983-0.631-5.545-1.893-7.687c-1.262-2.141-2.946-3.919-5.049-5.336c-2.105-1.414-4.514-2.447-7.229-3.098
			c-2.716-0.649-5.527-0.975-8.433-0.975H169.675z"/>
		<path fill="#F1F9FE" d="M295.89,269.023h-4.82c-2.449-5.737-4.876-11.474-7.286-17.211c-2.41-5.737-4.839-11.474-7.286-17.211
			h-32.243c-2.449,5.737-4.877,11.474-7.287,17.211c-2.409,5.737-4.839,11.474-7.286,17.211h-4.934
			c5.967-14.074,11.894-28.072,17.785-41.996c5.89-13.921,11.818-27.92,17.785-41.996c5.967,14.076,11.894,28.074,17.785,41.996
			C283.994,240.951,289.923,254.949,295.89,269.023z M261.352,198.915c-0.154-0.534-0.326-1.07-0.516-1.606
			c-0.192-0.534-0.364-1.07-0.517-1.606c-1.99,5.814-4.228,11.551-6.712,17.211c-2.487,5.662-4.954,11.359-7.401,17.096h28.341
			c-2.219-5.278-4.417-10.479-6.597-15.605C265.77,209.282,263.57,204.118,261.352,198.915z"/>
		<path fill="#F1F9FE" d="M311.265,269.023v-80.32h17.211c2.369,0,4.971,0.383,7.801,1.147c2.83,0.766,5.488,1.99,7.976,3.672
			c2.484,1.684,4.569,3.864,6.253,6.541c1.682,2.678,2.525,5.891,2.525,9.638c0,5.507-1.474,10.079-4.417,13.712
			c-2.946,3.634-7.211,6.024-12.794,7.171c3.058,6.503,6.099,12.928,9.122,19.277c3.02,6.35,6.023,12.736,9.007,19.162h-5.163
			c-2.983-6.426-5.966-12.774-8.951-19.047c-2.983-6.271-5.966-12.582-8.949-18.933c-0.689,0.077-1.36,0.134-2.008,0.172
			c-0.651,0.039-1.32,0.057-2.008,0.057h-10.9v37.75H311.265z M315.969,226.569h11.934c3.977,0,7.286-0.535,9.925-1.607
			c2.638-1.07,4.741-2.447,6.31-4.13c1.568-1.682,2.658-3.5,3.271-5.451c0.611-1.95,0.918-3.843,0.918-5.679
			c0-2.141-0.515-4.206-1.549-6.197c-1.032-1.988-2.466-3.747-4.303-5.278c-1.835-1.53-3.998-2.734-6.483-3.615
			c-2.486-0.878-5.146-1.319-7.974-1.319h-12.048V226.569z"/>
		<path fill="#F1F9FE" d="M370.471,269.023v-80.32h47.618v4.59h-42.914v32.931h38.439v4.589h-38.439v33.62h44.52v4.59H370.471z"/>
		<path fill="#F1F9FE" d="M164.97,406.714v-80.32h17.211c2.37,0,4.971,0.383,7.802,1.148c2.829,0.764,5.488,1.99,7.975,3.672
			c2.484,1.683,4.57,3.863,6.253,6.54c1.682,2.678,2.524,5.892,2.524,9.638c0,6.58-2.085,11.819-6.253,15.72
			c-4.17,3.902-10.194,5.852-18.072,5.852h-12.736v37.751H164.97z M169.675,364.26h11.933c3.977,0,7.286-0.534,9.925-1.606
			c2.639-1.071,4.742-2.448,6.31-4.131c1.567-1.682,2.658-3.5,3.27-5.451c0.612-1.951,0.918-3.843,0.918-5.68
			c0-2.14-0.516-4.206-1.549-6.195c-1.033-1.988-2.467-3.748-4.303-5.279c-1.836-1.529-3.998-2.734-6.483-3.614
			c-2.487-0.878-5.146-1.32-7.975-1.32h-12.048V364.26z"/>
		<path fill="#F1F9FE" d="M295.89,406.714h-4.82c-2.449-5.737-4.876-11.474-7.286-17.211s-4.839-11.474-7.286-17.211h-32.243
			c-2.449,5.737-4.877,11.474-7.287,17.211c-2.409,5.737-4.839,11.474-7.286,17.211h-4.934
			c5.967-14.074,11.894-28.073,17.785-41.996c5.89-13.921,11.818-27.92,17.785-41.995c5.967,14.075,11.894,28.074,17.785,41.995
			C283.994,378.641,289.923,392.64,295.89,406.714z M261.352,336.606c-0.154-0.534-0.326-1.069-0.516-1.606
			c-0.192-0.534-0.364-1.071-0.517-1.606c-1.99,5.814-4.228,11.551-6.712,17.211c-2.487,5.661-4.954,11.36-7.401,17.097h28.341
			c-2.219-5.279-4.417-10.479-6.597-15.605C265.77,346.972,263.57,341.809,261.352,336.606z M252.058,310.789
			c0-2.295,0.821-4.246,2.467-5.852c1.644-1.606,3.614-2.409,5.91-2.409c2.295,0,4.263,0.803,5.909,2.409
			c1.644,1.606,2.467,3.557,2.467,5.852c0,2.372-0.823,4.36-2.467,5.967c-1.646,1.606-3.614,2.409-5.909,2.409
			c-2.295,0-4.266-0.803-5.91-2.409C252.879,315.149,252.058,313.161,252.058,310.789z M255.615,310.904
			c0,1.302,0.477,2.43,1.434,3.385c0.956,0.957,2.084,1.434,3.385,1.434c1.3,0,2.447-0.477,3.442-1.434
			c0.994-0.955,1.492-2.083,1.492-3.385c0-1.3-0.498-2.446-1.492-3.441c-0.995-0.994-2.142-1.492-3.442-1.492
			c-1.302,0-2.43,0.498-3.385,1.492C256.092,308.457,255.615,309.604,255.615,310.904z"/>
		<path fill="#F1F9FE" d="M315.686,314.517v17.615c-2.246-2.583-4.469-5.144-6.666-7.688c-2.197-2.542-4.412-5.105-6.641-7.688
			c-0.08-0.112-0.157-0.215-0.229-0.313c-0.072-0.096-0.149-0.2-0.229-0.311c0.016,0.127,0.027,0.257,0.037,0.384
			c0.008,0.129,0.02,0.257,0.035,0.386v14.462h-1.01v-17.615c2.246,2.616,4.467,5.203,6.666,7.761
			c2.197,2.56,4.412,5.139,6.641,7.737c0.08,0.112,0.157,0.215,0.229,0.311c0.072,0.098,0.149,0.202,0.229,0.313
			c-0.016-0.127-0.029-0.257-0.037-0.384c-0.008-0.129-0.02-0.257-0.035-0.386v-14.584H315.686z"/>
		<path fill="#F1F9FE" d="M319.632,322.963c0-1.187,0.225-2.305,0.674-3.357c0.448-1.05,1.063-1.964,1.841-2.744
			c0.777-0.777,1.688-1.394,2.732-1.853c1.042-0.456,2.158-0.685,3.345-0.685c1.187,0,2.305,0.229,3.357,0.685
			c1.052,0.458,1.964,1.075,2.744,1.853c0.777,0.779,1.396,1.694,1.853,2.744c0.458,1.052,0.685,2.17,0.685,3.357
			c0,1.189-0.227,2.303-0.685,3.347c-0.456,1.042-1.075,1.952-1.853,2.73c-0.779,0.779-1.692,1.392-2.744,1.841
			c-1.052,0.45-2.17,0.674-3.357,0.674c-1.187,0-2.303-0.223-3.345-0.674c-1.044-0.448-1.954-1.061-2.732-1.841
			c-0.777-0.777-1.392-1.688-1.841-2.73C319.857,325.266,319.632,324.152,319.632,322.963z M320.642,322.988
			c0,1.057,0.196,2.048,0.589,2.971c0.394,0.924,0.934,1.725,1.625,2.407c0.689,0.681,1.492,1.224,2.405,1.625
			c0.915,0.4,1.894,0.601,2.937,0.601c1.042,0,2.029-0.202,2.959-0.601c0.93-0.401,1.745-0.948,2.442-1.637
			c0.699-0.689,1.247-1.496,1.649-2.418s0.601-1.913,0.601-2.973c0-1.057-0.2-2.052-0.601-2.983
			c-0.401-0.93-0.946-1.745-1.637-2.442c-0.689-0.699-1.5-1.247-2.43-1.649c-0.93-0.401-1.917-0.601-2.959-0.601
			c-1.044,0-2.025,0.204-2.947,0.613c-0.924,0.409-1.729,0.962-2.419,1.661c-0.691,0.697-1.232,1.512-1.625,2.442
			C320.838,320.934,320.642,321.929,320.642,322.988z"/>
		<path fill="#F1F9FE" d="M340.467,336.837v-4.705h15.72v74.583h-4.818v-69.878H340.467z"/>
		<path fill="#F1F9FE" d="M384.412,366.898c3.517-5.049,7.017-10.057,10.499-15.03c3.48-4.973,6.978-9.983,10.498-15.031h-28.457
			v-4.705h37.062l-20.309,28.226c3.058,0.23,5.946,0.976,8.663,2.237c2.714,1.262,5.086,2.927,7.114,4.991
			c2.026,2.065,3.614,4.457,4.761,7.171c1.148,2.717,1.722,5.68,1.722,8.893c0,3.289-0.631,6.388-1.894,9.294
			c-1.262,2.907-2.983,5.449-5.163,7.63s-4.744,3.902-7.688,5.164c-2.946,1.261-6.063,1.892-9.351,1.892
			c-3.518,0-6.789-0.708-9.81-2.123c-3.023-1.414-5.642-3.307-7.86-5.68l3.557-3.557c1.681,1.991,3.709,3.597,6.081,4.82
			c2.371,1.225,4.971,1.836,7.803,1.836c2.677,0,5.201-0.517,7.574-1.549c2.369-1.033,4.435-2.428,6.195-4.188
			c1.759-1.759,3.156-3.805,4.188-6.139c1.032-2.332,1.549-4.8,1.549-7.4c0-2.6-0.517-5.067-1.549-7.4s-2.429-4.379-4.188-6.139
			c-1.76-1.759-3.826-3.136-6.195-4.131c-2.373-0.994-4.897-1.492-7.574-1.492c-1.301,0-2.564,0.212-3.786,0.631
			C386.629,365.541,385.483,366.135,384.412,366.898z"/>
	</g>
</g>
</svg>
