<?xml version="1.0" encoding="utf-8"?>
<!-- Generator: Adobe Illustrator 17.0.0, SVG Export Plug-In . SVG Version: 6.00 Build 0)  -->
<!DOCTYPE svg PUBLIC "-//W3C//DTD SVG 1.1//EN" "http://www.w3.org/Graphics/SVG/1.1/DTD/svg11.dtd">
<svg version="1.1" id="Layer_1" xmlns="http://www.w3.org/2000/svg" xmlns:xlink="http://www.w3.org/1999/xlink" viewBox="0 0 28.003 28.003" enable-background="new 0 0 28.003 28.003" xml:space="preserve">
	 
<path fill="#383A3F" d="M14.002,0C6.269,0,0,6.27,0,14.002c0,7.733,6.269,14.001,14.002,14.001s14.001-6.268,14.001-14.001
	C28.003,6.27,21.735,0,14.002,0z M17.765,22.158c-0.577,0-3.771-0.076-4.587-0.076c-0.816,0-5.068-1.326-5.068-6.004
	c0-0.833-0.001-1.67-0.003-2.504c-0.003-0.777-0.019-1.554-0.022-2.326c-0.001-0.225-0.002-0.451-0.003-0.676
	C8.077,9.394,7.978,8.068,8.356,6.937c0.29-0.863,0.976-1.208,1.82-1.208c2.043,0,2.18,2.083,2.186,4.176h5.906
	c0.936,0,1.634,0.948,1.634,2.4c0,1.45-1.513,1.776-2.306,1.776h-5.3c-0.027,0.888-0.055,1.611-0.055,2.051
	c0,0.924,0.36,1.925,2.617,1.925h3.172c0.792,0,1.967,0.6,1.967,2.276C19.998,22.005,18.342,22.158,17.765,22.158z"/>
</svg>
